<svg id="visual" viewBox="0 0 900 600" width="900" height="600" xmlns="http://www.w3.org/2000/svg" xmlns:xlink="http://www.w3.org/1999/xlink" version="1.1"><rect x="0" y="0" width="900" height="600" fill="#0b1a82"></rect><g transform="translate(446.702655474886 299.25460039367437)"><path d="M144 -196.6C183.8 -169.3 211.3 -123.4 229.3 -73.3C247.3 -23.1 255.8 31.4 235.8 71.6C215.8 111.7 167.3 137.6 123.2 167.1C79.2 196.6 39.6 229.8 1 228.5C-37.6 227.1 -75.2 191.2 -122.8 162.8C-170.3 134.5 -227.8 113.6 -238.7 78C-249.7 42.5 -214 -7.7 -186.3 -50.6C-158.7 -93.4 -139 -128.8 -109.3 -159.3C-79.5 -189.8 -39.8 -215.4 6.2 -223.9C52.1 -232.4 104.2 -223.8 144 -196.6" fill="#09112e"></path></g></svg>